<svg viewBox="0 0 100.377 10.0112" xmlns="http://www.w3.org/2000/svg" xmlns:xlink="http://www.w3.org/1999/xlink" width="100.376953" height="10.011169" fill="none" customFrame="#000000">
	<path id="Северяночка" d="M5.85049 7.50344C6.12845 7.40471 6.37332 7.28624 6.57849 7.13485C6.78365 6.99663 7.02191 7.00321 7.1278 7.1546L8.11391 8.64212C8.13581 8.67661 8.14613 8.7166 8.14613 8.75878C8.14613 8.86957 8.0749 8.99549 7.95507 9.07653C7.59769 9.34639 7.14765 9.57018 6.59834 9.74789C6.05565 9.92561 5.55267 10.0112 5.08939 10.0112C4.38786 10.0112 3.71943 9.87953 3.0907 9.62284C2.46197 9.35956 1.9259 9.00413 1.46924 8.56314C1.0192 8.12215 0.66182 7.58901 0.397092 6.9703C0.132364 6.3516 0 5.69998 0 5.00888C0 4.31777 0.132364 3.66616 0.397092 3.04745C0.66182 2.42875 1.0192 1.89561 1.46924 1.45461C1.9259 1.00704 2.46197 0.651615 3.0907 0.394918C3.71943 0.131639 4.38786 0 5.08939 0C5.53943 0 6.04241 0.0921475 6.59172 0.276443Q7.41569 0.543012 8.0014 0.967549C8.1054 1.04081 8.15833 1.15076 8.15833 1.25305C8.15833 1.30698 8.14361 1.35878 8.11391 1.40196L7.10794 2.86974C7.00867 3.00796 6.79689 3.02771 6.61158 2.89607C6.39318 2.73152 6.1483 2.59988 5.86372 2.50115C5.57914 2.40242 5.32103 2.34976 5.08939 2.34976C4.34154 2.34976 3.69957 2.60646 3.17673 3.12643C2.6539 3.63983 2.39579 4.26512 2.39579 5.00888C2.39579 5.74606 2.6539 6.37135 3.17673 6.88474C3.69957 7.39155 4.34154 7.64825 5.08939 7.64825C5.32103 7.64825 5.57252 7.60217 5.85049 7.50344ZM61.3573 6.9703C61.0992 6.3516 60.9668 5.69998 60.9668 5.01546C60.9668 4.32435 61.0992 3.67274 61.3573 3.05403C61.622 2.42875 61.9794 1.89561 62.4228 1.45461C62.8729 1.01362 63.4089 0.658197 64.0311 0.4015C64.6532 0.138221 65.3084 0.00658197 66.0033 0.00658197C66.6982 0.00658197 67.3534 0.138221 67.9689 0.4015C68.591 0.658197 69.1271 1.01362 69.5705 1.45461C70.0205 1.89561 70.3779 2.42875 70.636 3.05403C70.9007 3.67274 71.0331 4.32435 71.0331 5.01546C71.0331 5.93035 70.8081 6.77284 70.3647 7.53635C69.9212 8.29986 69.319 8.9054 68.5447 9.34639C67.7769 9.78739 66.9298 10.0046 66.0033 10.0046C65.3084 10.0046 64.6532 9.87295 64.0311 9.61625C63.4089 9.35298 62.8729 8.99755 62.4228 8.55656C61.9794 8.11557 61.622 7.58243 61.3573 6.9703ZM77.5917 0.533139C77.5917 0.342262 77.7439 0.177713 77.9293 0.177713L79.6632 0.177713C79.8485 0.177713 79.9875 0.329098 79.9875 0.533139L79.9875 9.45171C79.9875 9.64258 79.8353 9.80055 79.6434 9.80055L77.9293 9.80055C77.7373 9.80055 77.5917 9.64917 77.5917 9.45829L77.5917 6.45033C77.1152 6.90448 76.4203 7.20067 75.6791 7.20067C74.5407 7.20067 73.6142 6.83866 72.8994 6.12123C72.1847 5.39721 71.8273 4.43625 71.8273 3.23833L71.8273 0.533139C71.8273 0.342262 71.9729 0.177713 72.1516 0.177713L73.8524 0.177713C74.0642 0.177713 74.2231 0.329098 74.2231 0.533139L74.2231 3.23175C74.2231 4.26512 74.8386 4.87724 75.8776 4.87724C76.4005 4.87724 76.8108 4.72585 77.1218 4.42966C77.4329 4.13348 77.5917 3.73856 77.5917 3.24491L77.5917 0.533139ZM96.3808 0.177713C96.5661 0.177713 96.7448 0.309352 96.8176 0.50023L100.345 9.42538C100.367 9.47968 100.377 9.5311 100.377 9.57769C100.377 9.71745 100.281 9.81371 100.087 9.81371L98.2074 9.81371C98.0221 9.81371 97.8567 9.68207 97.7839 9.49778L97.347 8.23404L93.9916 8.23404L93.5614 9.4912C93.5085 9.67549 93.3364 9.80713 93.1313 9.80713L91.2583 9.80713C91.0718 9.80713 90.9697 9.71546 90.9697 9.56995C90.9697 9.52444 90.9797 9.47367 91.0002 9.4188L94.5343 0.50023C94.6204 0.296189 94.799 0.177713 94.9844 0.177713L96.3808 0.177713ZM9.70228 9.80055C9.48388 9.80055 9.35151 9.67549 9.35151 9.45829L9.35151 0.533139C9.35151 0.315934 9.48388 0.184295 9.70228 0.184295L15.93 0.184295C16.1484 0.184295 16.2808 0.315934 16.2808 0.533139L16.2808 2.04699C16.2808 2.27736 16.1616 2.39584 15.93 2.39584L11.7274 2.39584L11.7274 3.98867L14.9174 3.98867C15.1557 3.98867 15.3013 4.12031 15.3013 4.35068L15.3013 5.60125C15.3013 5.81846 15.1557 5.9501 14.9174 5.9501L11.7274 5.9501L11.7274 7.58901L15.93 7.58901C16.2278 7.58901 16.4131 7.76672 16.4131 8.03658L16.4131 9.45829C16.4131 9.66891 16.2741 9.80055 16.0557 9.80055L9.70228 9.80055ZM24.6925 2.96189C24.6925 3.66616 24.3483 4.3441 23.799 4.70611C24.2094 4.8904 24.5337 5.18001 24.7719 5.58151C25.0102 5.98301 25.1293 6.424 25.1293 6.90448Q25.1293 7.88732 24.671 8.55619Q24.4894 8.82128 24.2358 9.03704C23.6468 9.54385 22.8195 9.80055 21.754 9.80055L18.0015 9.80055C17.8294 9.80055 17.7434 9.71498 17.7434 9.55044L17.7434 0.43441C17.7434 0.269861 17.8294 0.184295 18.0015 0.184295L21.476 0.184295C22.4953 0.184295 23.2828 0.427828 23.8454 0.914894C24.4079 1.40196 24.6925 2.08648 24.6925 2.96189ZM26.6713 9.80055C26.4529 9.80055 26.3206 9.67549 26.3206 9.45829L26.3206 0.533139C26.3206 0.315934 26.4529 0.184295 26.6713 0.184295L32.8991 0.184295C33.1175 0.184295 33.2498 0.315934 33.2498 0.533139L33.2498 2.04699C33.2498 2.27736 33.1307 2.39584 32.8991 2.39584L28.6965 2.39584L28.6965 3.98867L31.8865 3.98867C32.1247 3.98867 32.2703 4.12031 32.2703 4.35068L32.2703 5.60125C32.2703 5.81846 32.1247 5.9501 31.8865 5.9501L28.6965 5.9501L28.6965 7.58901L32.8991 7.58901C33.1969 7.58901 33.3822 7.76672 33.3822 8.03658L33.3822 9.45829C33.3822 9.66891 33.2432 9.80055 33.0248 9.80055L26.6713 9.80055ZM35.9103 0.184295L38.273 0.184295C39.3055 0.184295 40.1394 0.487066 40.7813 1.09919C41.4233 1.70473 41.7476 2.51431 41.7476 3.52793C41.7476 4.52839 41.4233 5.33139 40.7813 5.93693C40.1394 6.53589 39.3055 6.83866 38.273 6.83866L37.1148 6.83866L37.1148 9.45829C37.1148 9.67549 36.9825 9.80713 36.7508 9.80713L35.0566 9.80713C34.8382 9.80713 34.7124 9.67549 34.7124 9.45829L34.7124 0.539721C34.7124 0.33568 34.8514 0.184295 35.0566 0.184295L35.9103 0.184295ZM46.056 0.184295L49.4512 0.184295C49.6563 0.184295 49.7953 0.329098 49.7953 0.533139L49.7953 9.45829C49.7953 9.67549 49.6696 9.80713 49.4512 9.80713L47.7569 9.80713C47.5253 9.80713 47.3929 9.67549 47.3929 9.45829L47.3929 6.79917L46.4068 6.79917L44.9905 9.51094C44.8648 9.74131 44.7787 9.80713 44.5868 9.80713L42.6079 9.80713C42.45 9.80713 42.3436 9.69001 42.3436 9.5513C42.3436 9.50399 42.356 9.45417 42.3829 9.40563L44.0772 6.2792C43.1308 5.71973 42.5815 4.72585 42.5815 3.52135C42.5815 2.51431 42.8991 1.70473 43.5411 1.09919C44.1831 0.487066 45.0236 0.184295 46.056 0.184295ZM57.4129 0.440992C57.4129 0.269861 57.4989 0.184295 57.6643 0.184295L59.5373 0.184295C59.7027 0.184295 59.7888 0.269861 59.7888 0.440992L59.7888 9.55044C59.7888 9.72157 59.7027 9.80713 59.5373 9.80713L57.6643 9.80713C57.4989 9.80713 57.4129 9.72157 57.4129 9.55044L57.4129 5.93035L53.7927 5.93035L53.7927 9.55044C53.7927 9.72157 53.7067 9.80713 53.5412 9.80713L51.6749 9.80713Q51.5451 9.80713 51.4806 9.74225Q51.4168 9.67808 51.4168 9.55044L51.4168 0.440992Q51.4168 0.313348 51.4806 0.249176Q51.5451 0.184295 51.6749 0.184295L53.5412 0.184295C53.7067 0.184295 53.7927 0.269861 53.7927 0.440992L53.7927 3.76489L57.4129 3.76489L57.4129 0.440992ZM90.4178 0.638451L87.3403 4.71927L90.5038 9.39905C90.5503 9.46609 90.5731 9.538 90.5731 9.60309C90.5731 9.72333 90.4953 9.8203 90.345 9.8203L88.1478 9.8203C88.0088 9.8203 87.8896 9.76764 87.8036 9.66891L85.3681 6.03566L84.0048 6.03566L84.0048 9.54385C84.0048 9.71498 83.9187 9.80055 83.7533 9.80055L81.8671 9.80055Q81.7373 9.80055 81.6728 9.73567Q81.609 9.6715 81.609 9.54385L81.609 0.440992C81.609 0.276443 81.695 0.190877 81.8671 0.190877L83.7533 0.190877C83.9187 0.190877 84.0048 0.276443 84.0048 0.440992L84.0048 3.78463L85.0703 3.78463L87.5786 0.43441C87.7308 0.230369 87.8566 0.204041 88.0882 0.204041L90.2656 0.204041C90.4206 0.204041 90.504 0.293768 90.504 0.413064C90.504 0.482169 90.4761 0.561195 90.4178 0.638451ZM22.2967 3.13302C22.2967 2.63279 21.9724 2.32343 21.4496 2.32343L20.1458 2.32343L20.1458 3.94918L21.4496 3.94918C21.9724 3.94918 22.2967 3.63325 22.2967 3.13302ZM45.3082 4.38359C45.5332 4.62054 45.8178 4.73902 46.1553 4.73902L47.3929 4.73902L47.3929 2.34318L46.1553 2.34318C45.8112 2.34318 45.5266 2.45507 45.3082 2.67228C45.0898 2.88948 44.9773 3.16593 44.9773 3.50819C44.9773 3.85045 45.0898 4.14006 45.3082 4.38359ZM37.1148 2.34976L37.1148 4.6732L38.1738 4.6732C38.5113 4.6732 38.7959 4.5613 39.0143 4.3441C39.2393 4.12689 39.3518 3.85045 39.3518 3.51477C39.3518 3.17909 39.2393 2.90265 39.0143 2.68544C38.7959 2.46166 38.5113 2.34976 38.1738 2.34976L37.1148 2.34976ZM64.1303 3.15276C63.6207 3.65957 63.3626 4.27828 63.3626 5.01546C63.3626 5.74606 63.6141 6.35818 64.1237 6.86499C64.6333 7.3718 65.262 7.62192 66.0033 7.62192C66.7379 7.62192 67.36 7.3718 67.8696 6.86499C68.3792 6.35818 68.6373 5.74606 68.6373 5.01546C68.6373 4.27828 68.3792 3.65957 67.8696 3.15276C67.36 2.64595 66.7379 2.38925 66.0033 2.38925C65.2687 2.38925 64.6399 2.64595 64.1303 3.15276ZM96.6654 6.24629L95.666 3.33048L94.6667 6.24629L96.6654 6.24629ZM20.1458 5.73289L20.1458 7.66141L21.7209 7.66141C22.3364 7.66141 22.7269 7.27966 22.7269 6.6807C22.7269 6.0949 22.3364 5.73289 21.7209 5.73289L20.1458 5.73289Z" fill="rgb(64.8125,64.8125,64.8125)" fill-rule="evenodd" />
</svg>
